# xmcd
#
# Track frame offsets: 
#        150
#        38334
#        76072
#        112798
#        149947
#        184736
#        223451
#        260504
#
# Disc length: 3999 seconds
#
# Revision: 1
# Processed by: cddbd v1.5.2PL0 Copyright (c) Steve Scherf et al.
# Submitted via: ExactAudioCopy v1.3
#
DISCID=6f0f9d08
DTITLE=G. Keiles and S. Loewenthal - Peace
DYEAR=2004
DGENRE=New Age
TTITLE0=Pure peace
TTITLE1=Dream weaver
TTITLE2=Angels beauty
TTITLE3=Inner peace
TTITLE4=Cocoon of love
TTITLE5=Evening stillness
TTITLE6=Fantasy
TTITLE7=Journey of dreams
EXTD=YEAR: 2004
EXTT0=
EXTT1=
EXTT2=
EXTT3=
EXTT4=
EXTT5=
EXTT6=
EXTT7=
PLAYORDER=
